;Layer: Drill PTH
;EasyEDA v6.4.7, 2020-10-29T15:09:56+01:00
;be26d73647f643b9bed1595039a1f13e,8ad6603aa9144f4486dc47fe7e0b0969,10
;Gerber Generator version 0.2
M48
METRIC,LZ,000.000
;Holesize 1 = 0.889 METRIC
T01C0.889
;Holesize 2 = 0.900 METRIC
T02C0.900
;Holesize 3 = 0.915 METRIC
T03C0.915
;Holesize 4 = 0.966 METRIC
T04C0.966
;Holesize 5 = 1.000 METRIC
T05C1.000
;Holesize 6 = 1.010 METRIC
T06C1.010
%
G05
G90
T01
X+071374Y+047879
X+073914Y+047879
X+054102Y+049784
X+051562Y+049784
X+049022Y+049784
X+046482Y+049784
T02
X+026543Y+052806
X+034163Y+052806
X+026543Y+056210
X+034163Y+056210
X+026543Y+049403
X+034163Y+049403
X+026543Y+059613
X+034163Y+059613
X+026543Y+063017
X+034163Y+063017
X+026543Y+066421
X+034163Y+066421
T03
X+041402Y+052959
X+041402Y+055499
X+041402Y+058039
X+041402Y+060579
X+071120Y+052959
X+071120Y+055499
X+071120Y+058039
X+071120Y+060579
X+071120Y+063119
T04
X+010795Y+089243
X+008255Y+089243
X+010795Y+041350
X+008255Y+041350
X+010795Y+025385
X+008255Y+025385
X+010795Y+009421
X+008255Y+009421
X+010795Y+057314
X+008255Y+057314
X+010795Y+073279
X+008255Y+073279
T05
X+028448Y+013335
X+030988Y+013335
X+033528Y+013335
X+036068Y+013335
X+038608Y+013335
X+041148Y+013335
X+043688Y+013335
X+046228Y+013335
X+048768Y+013335
X+051308Y+013335
X+053848Y+013335
X+056388Y+013335
X+058928Y+013335
X+061468Y+013335
X+064008Y+013335
X+066548Y+013335
X+069088Y+013335
X+071628Y+013335
X+074168Y+013335
X+028448Y+038735
X+030988Y+038735
X+033528Y+038735
X+036068Y+038735
X+038608Y+038735
X+041148Y+038735
X+043688Y+038735
X+046228Y+038735
X+048768Y+038735
X+051308Y+038735
X+053848Y+038735
X+056388Y+038735
X+058928Y+038735
X+061468Y+038735
X+064008Y+038735
X+066548Y+038735
X+069088Y+038735
X+071628Y+038735
X+074168Y+038735
T06
X+028448Y+008382
X+030990Y+008384
X+036070Y+008384
X+033528Y+008382
X+038608Y+008382
X+041148Y+008382
X+043688Y+008382
X+046228Y+008382
X+048768Y+008382
X+051308Y+008382
X+053848Y+008382
X+056388Y+008382
X+058928Y+008382
X+061468Y+008382
X+064008Y+008382
X+066548Y+008382
X+069088Y+008382
X+071628Y+008382
X+074168Y+008382
X+074168Y+043815
X+071625Y+043812
X+066545Y+043812
X+069088Y+043815
X+064008Y+043815
X+061468Y+043815
X+058928Y+043815
X+056388Y+043815
X+053848Y+043815
X+051308Y+043815
X+048768Y+043815
X+046228Y+043815
X+043688Y+043815
X+041148Y+043815
X+038608Y+043815
X+036068Y+043815
X+033528Y+043815
X+030988Y+043815
X+028448Y+043815
M30
