G04 Layer: TopSilkLayer*
G04 EasyEDA v6.4.7, 2020-10-29T15:09:56+01:00*
G04 be26d73647f643b9bed1595039a1f13e,8ad6603aa9144f4486dc47fe7e0b0969,10*
G04 Gerber Generator version 0.2*
G04 Scale: 100 percent, Rotated: No, Reflected: No *
G04 Dimensions in millimeters *
G04 leading zeros omitted , absolute positions ,3 integer and 3 decimal *
%FSLAX33Y33*%
%MOMM*%
G90*
D02*

%ADD10C,0.254000*%
%ADD13C,0.203200*%
%ADD21C,0.202999*%
%ADD22C,0.152400*%

%LPD*%
G54D13*
G01X75184Y49149D02*
G01X75184Y46634D01*
G01X70104Y46634D01*
G01X70104Y49149D01*
G01X75184Y49149D01*
G54D10*
G01X27813Y52806D02*
G01X27559Y52806D01*
G01X32893Y52806D02*
G01X33147Y52806D01*
G01X27813Y52806D02*
G01X27813Y53568D01*
G01X27813Y52044D02*
G01X27813Y52806D01*
G01X32893Y52044D02*
G01X27813Y52044D01*
G01X32893Y52806D02*
G01X32893Y52044D01*
G01X32893Y53568D02*
G01X32893Y52806D01*
G01X27813Y53568D02*
G01X32893Y53568D01*
G01X39878Y62103D02*
G01X42926Y62103D01*
G01X42926Y68199D01*
G01X69342Y68199D01*
G01X69342Y64643D01*
G01X72644Y64643D01*
G01X72644Y51435D01*
G01X69342Y51435D01*
G01X69342Y48641D01*
G01X42926Y48641D01*
G01X42926Y51435D01*
G01X39878Y51435D01*
G01X39878Y61849D01*
G54D13*
G01X45212Y48514D02*
G01X45212Y51054D01*
G01X55372Y51054D01*
G01X55372Y48514D01*
G01X53467Y48514D01*
G54D21*
G01X45212Y48514D02*
G01X53467Y48514D01*
G54D10*
G01X7295Y90543D02*
G01X7295Y87943D01*
G01X27813Y56210D02*
G01X27559Y56210D01*
G01X32893Y56210D02*
G01X33147Y56210D01*
G01X27813Y56210D02*
G01X27813Y56972D01*
G01X27813Y55448D02*
G01X27813Y56210D01*
G01X32893Y55448D02*
G01X27813Y55448D01*
G01X32893Y56210D02*
G01X32893Y55448D01*
G01X32893Y56972D02*
G01X32893Y56210D01*
G01X27813Y56972D02*
G01X32893Y56972D01*
G01X27813Y49403D02*
G01X27559Y49403D01*
G01X32893Y49403D02*
G01X33147Y49403D01*
G01X27813Y49403D02*
G01X27813Y50165D01*
G01X27813Y48641D02*
G01X27813Y49403D01*
G01X32893Y48641D02*
G01X27813Y48641D01*
G01X32893Y49403D02*
G01X32893Y48641D01*
G01X32893Y50165D02*
G01X32893Y49403D01*
G01X27813Y50165D02*
G01X32893Y50165D01*
G01X27813Y59613D02*
G01X27559Y59613D01*
G01X32893Y59613D02*
G01X33147Y59613D01*
G01X27813Y59613D02*
G01X27813Y60375D01*
G01X27813Y58851D02*
G01X27813Y59613D01*
G01X32893Y58851D02*
G01X27813Y58851D01*
G01X32893Y59613D02*
G01X32893Y58851D01*
G01X32893Y60375D02*
G01X32893Y59613D01*
G01X27813Y60375D02*
G01X32893Y60375D01*
G01X27813Y63017D02*
G01X27559Y63017D01*
G01X32893Y63017D02*
G01X33147Y63017D01*
G01X27813Y63017D02*
G01X27813Y63779D01*
G01X27813Y62255D02*
G01X27813Y63017D01*
G01X32893Y62255D02*
G01X27813Y62255D01*
G01X32893Y63017D02*
G01X32893Y62255D01*
G01X32893Y63779D02*
G01X32893Y63017D01*
G01X27813Y63779D02*
G01X32893Y63779D01*
G01X7295Y42650D02*
G01X7295Y40050D01*
G01X7295Y26685D02*
G01X7295Y24085D01*
G01X7295Y10721D02*
G01X7295Y8121D01*
G01X7295Y58614D02*
G01X7295Y56014D01*
G01X7295Y74578D02*
G01X7295Y71979D01*
G01X25908Y41275D02*
G01X76708Y41275D01*
G01X25908Y10795D02*
G01X50927Y10795D01*
G01X76708Y10795D01*
G01X20828Y16891D02*
G01X25926Y16891D01*
G01X20828Y35191D02*
G01X25921Y35191D01*
G01X25926Y16891D02*
G01X25908Y10795D01*
G01X25908Y41275D02*
G01X25921Y35191D01*
G01X26416Y17907D02*
G01X22225Y17907D01*
G01X22225Y17907D02*
G01X22225Y19939D01*
G01X22225Y21971D02*
G01X22225Y24003D01*
G01X22225Y26035D02*
G01X22225Y28067D01*
G01X24257Y19939D02*
G01X24257Y21971D01*
G01X24257Y24003D02*
G01X24257Y26035D01*
G01X24257Y28067D02*
G01X24257Y30099D01*
G01X24257Y19939D02*
G01X22225Y19939D01*
G01X24257Y21971D02*
G01X22225Y21971D01*
G01X24257Y24003D02*
G01X22225Y24003D01*
G01X24257Y26035D02*
G01X22225Y26035D01*
G01X24257Y28067D02*
G01X22225Y28067D01*
G01X24257Y30099D02*
G01X22225Y30099D01*
G01X20828Y35191D02*
G01X20828Y16891D01*
G01X26416Y32131D02*
G01X22225Y32131D01*
G01X22225Y30099D02*
G01X22225Y32131D01*
G01X22225Y32004D02*
G01X22225Y34036D01*
G01X26416Y34036D02*
G01X22288Y34036D01*
G01X20828Y16891D02*
G01X20828Y35179D01*
G01X46228Y35179D01*
G01X46228Y16891D01*
G01X20828Y16891D01*
G01X26416Y17399D02*
G01X26416Y34671D01*
G01X41910Y34671D01*
G01X41910Y17399D01*
G01X26416Y17399D01*
G01X71628Y20955D02*
G01X71628Y31115D01*
G01X78359Y31115D01*
G01X78359Y20955D01*
G01X71628Y20955D01*
G01X76581Y10795D02*
G01X76581Y20955D01*
G01X76708Y20955D01*
G01X76708Y10795D01*
G01X76581Y10795D01*
G01X76581Y31115D02*
G01X76581Y41275D01*
G01X76708Y41275D01*
G01X76708Y31115D01*
G01X76581Y31115D01*
G01X27813Y66421D02*
G01X27559Y66421D01*
G01X32893Y66421D02*
G01X33147Y66421D01*
G01X27813Y66421D02*
G01X27813Y67183D01*
G01X27813Y65659D02*
G01X27813Y66421D01*
G01X32893Y65659D02*
G01X27813Y65659D01*
G01X32893Y66421D02*
G01X32893Y65659D01*
G01X32893Y67183D02*
G01X32893Y66421D01*
G01X27813Y67183D02*
G01X32893Y67183D01*
G54D13*
G01X53848Y30751D02*
G01X53848Y28813D01*
G01X53848Y30751D02*
G01X55049Y30751D01*
G01X53848Y29829D02*
G01X54587Y29829D01*
G01X53848Y28813D02*
G01X55049Y28813D01*
G01X56951Y30474D02*
G01X56766Y30660D01*
G01X56489Y30751D01*
G01X56121Y30751D01*
G01X55841Y30660D01*
G01X55659Y30474D01*
G01X55659Y30289D01*
G01X55750Y30106D01*
G01X55841Y30012D01*
G01X56027Y29921D01*
G01X56581Y29735D01*
G01X56766Y29644D01*
G01X56857Y29552D01*
G01X56951Y29367D01*
G01X56951Y29090D01*
G01X56766Y28905D01*
G01X56489Y28813D01*
G01X56121Y28813D01*
G01X55841Y28905D01*
G01X55659Y29090D01*
G01X57561Y30751D02*
G01X57561Y28813D01*
G01X57561Y30751D02*
G01X58392Y30751D01*
G01X58668Y30660D01*
G01X58762Y30568D01*
G01X58854Y30383D01*
G01X58854Y30106D01*
G01X58762Y29921D01*
G01X58668Y29829D01*
G01X58392Y29735D01*
G01X57561Y29735D01*
G01X59649Y30751D02*
G01X60665Y30751D01*
G01X60109Y30012D01*
G01X60388Y30012D01*
G01X60571Y29921D01*
G01X60665Y29829D01*
G01X60756Y29552D01*
G01X60756Y29367D01*
G01X60665Y29090D01*
G01X60479Y28905D01*
G01X60203Y28813D01*
G01X59926Y28813D01*
G01X59649Y28905D01*
G01X59555Y28996D01*
G01X59463Y29182D01*
G01X61457Y30289D02*
G01X61457Y30383D01*
G01X61551Y30568D01*
G01X61643Y30660D01*
G01X61828Y30751D01*
G01X62196Y30751D01*
G01X62382Y30660D01*
G01X62473Y30568D01*
G01X62567Y30383D01*
G01X62567Y30198D01*
G01X62473Y30012D01*
G01X62290Y29735D01*
G01X61366Y28813D01*
G01X62659Y28813D01*
G01X11879Y13329D02*
G01X11879Y11668D01*
G01X11049Y12499D02*
G01X12712Y12499D01*
G01X12133Y29712D02*
G01X12133Y28051D01*
G01X11303Y28882D02*
G01X12966Y28882D01*
G01X12006Y45206D02*
G01X12006Y43545D01*
G01X11176Y44376D02*
G01X12839Y44376D01*
G01X12133Y61081D02*
G01X12133Y59420D01*
G01X11303Y60251D02*
G01X12966Y60251D01*
G01X12387Y76956D02*
G01X12387Y75295D01*
G01X11557Y76126D02*
G01X13220Y76126D01*
G01X12133Y93339D02*
G01X12133Y91678D01*
G01X11303Y92509D02*
G01X12966Y92509D01*
G54D22*
G01X72644Y50556D02*
G01X72644Y49466D01*
G01X73370Y50556D02*
G01X73370Y49466D01*
G01X72644Y50038D02*
G01X73370Y50038D01*
G01X73713Y50347D02*
G01X73817Y50401D01*
G01X73974Y50556D01*
G01X73974Y49466D01*
G01X31864Y55128D02*
G01X31346Y55128D01*
G01X31292Y54660D01*
G01X31346Y54711D01*
G01X31501Y54764D01*
G01X31658Y54764D01*
G01X31813Y54711D01*
G01X31917Y54610D01*
G01X31968Y54452D01*
G01X31968Y54348D01*
G01X31917Y54193D01*
G01X31813Y54089D01*
G01X31658Y54038D01*
G01X31501Y54038D01*
G01X31346Y54089D01*
G01X31292Y54140D01*
G01X31242Y54244D01*
G54D13*
G01X51308Y67020D02*
G01X51308Y65082D01*
G01X51308Y67020D02*
G01X52047Y65082D01*
G01X52786Y67020D02*
G01X52047Y65082D01*
G01X52786Y67020D02*
G01X52786Y65082D01*
G01X53395Y67020D02*
G01X53395Y65082D01*
G01X54688Y67020D02*
G01X54688Y65082D01*
G01X53395Y66098D02*
G01X54688Y66098D01*
G01X55298Y65913D02*
G01X56959Y65913D01*
G01X58864Y67020D02*
G01X57569Y65082D01*
G01X57569Y67020D02*
G01X58864Y67020D01*
G01X57569Y65082D02*
G01X58864Y65082D01*
G01X59474Y66652D02*
G01X59656Y66743D01*
G01X59933Y67020D01*
G01X59933Y65082D01*
G01X61744Y66375D02*
G01X61653Y66098D01*
G01X61468Y65913D01*
G01X61191Y65821D01*
G01X61099Y65821D01*
G01X60820Y65913D01*
G01X60637Y66098D01*
G01X60543Y66375D01*
G01X60543Y66466D01*
G01X60637Y66743D01*
G01X60820Y66929D01*
G01X61099Y67020D01*
G01X61191Y67020D01*
G01X61468Y66929D01*
G01X61653Y66743D01*
G01X61744Y66375D01*
G01X61744Y65913D01*
G01X61653Y65450D01*
G01X61468Y65173D01*
G01X61191Y65082D01*
G01X61005Y65082D01*
G01X60728Y65173D01*
G01X60637Y65359D01*
G01X43517Y60805D02*
G01X43472Y60670D01*
G01X43380Y60579D01*
G01X43243Y60533D01*
G01X43197Y60533D01*
G01X43063Y60579D01*
G01X42971Y60670D01*
G01X42926Y60805D01*
G01X42926Y60850D01*
G01X42971Y60987D01*
G01X43063Y61079D01*
G01X43197Y61125D01*
G01X43243Y61125D01*
G01X43380Y61079D01*
G01X43472Y60987D01*
G01X43517Y60805D01*
G01X43517Y60579D01*
G01X43472Y60352D01*
G01X43380Y60215D01*
G01X43243Y60170D01*
G01X43152Y60170D01*
G01X43017Y60215D01*
G01X42971Y60307D01*
G01X44516Y60579D02*
G01X45333Y60579D01*
G01X46334Y61125D02*
G01X46334Y60170D01*
G01X46334Y61125D02*
G01X46743Y61125D01*
G01X46880Y61079D01*
G01X46926Y61033D01*
G01X46972Y60942D01*
G01X46972Y60805D01*
G01X46926Y60716D01*
G01X46880Y60670D01*
G01X46743Y60624D01*
G01X46334Y60624D01*
G01X47271Y61125D02*
G01X47498Y60170D01*
G01X47726Y61125D02*
G01X47498Y60170D01*
G01X47726Y61125D02*
G01X47952Y60170D01*
G01X48181Y61125D02*
G01X47952Y60170D01*
G01X48480Y61125D02*
G01X48480Y60170D01*
G01X48480Y61125D02*
G01X48844Y60170D01*
G01X49207Y61125D02*
G01X48844Y60170D01*
G01X49207Y61125D02*
G01X49207Y60170D01*
G01X43152Y58585D02*
G01X43017Y58539D01*
G01X42971Y58447D01*
G01X42971Y58356D01*
G01X43017Y58265D01*
G01X43108Y58221D01*
G01X43289Y58176D01*
G01X43426Y58130D01*
G01X43517Y58039D01*
G01X43563Y57947D01*
G01X43563Y57812D01*
G01X43517Y57721D01*
G01X43472Y57675D01*
G01X43334Y57630D01*
G01X43152Y57630D01*
G01X43017Y57675D01*
G01X42971Y57721D01*
G01X42926Y57812D01*
G01X42926Y57947D01*
G01X42971Y58039D01*
G01X43063Y58130D01*
G01X43197Y58176D01*
G01X43380Y58221D01*
G01X43472Y58265D01*
G01X43517Y58356D01*
G01X43517Y58447D01*
G01X43472Y58539D01*
G01X43334Y58585D01*
G01X43152Y58585D01*
G01X44561Y58039D02*
G01X45379Y58039D01*
G01X46743Y58585D02*
G01X46380Y57630D01*
G01X46743Y58585D02*
G01X47106Y57630D01*
G01X46517Y57947D02*
G01X46972Y57947D01*
G01X47680Y58585D02*
G01X47589Y58539D01*
G01X47498Y58447D01*
G01X47452Y58356D01*
G01X47406Y58221D01*
G01X47406Y57993D01*
G01X47452Y57856D01*
G01X47498Y57767D01*
G01X47589Y57675D01*
G01X47680Y57630D01*
G01X47861Y57630D01*
G01X47952Y57675D01*
G01X48044Y57767D01*
G01X48089Y57856D01*
G01X48135Y57993D01*
G01X48135Y58221D01*
G01X48089Y58356D01*
G01X48044Y58447D01*
G01X47952Y58539D01*
G01X47861Y58585D01*
G01X47680Y58585D01*
G01X48752Y58585D02*
G01X48752Y57630D01*
G01X48435Y58585D02*
G01X49070Y58585D01*
G01X43563Y56045D02*
G01X43108Y55090D01*
G01X42926Y56045D02*
G01X43563Y56045D01*
G01X44561Y55499D02*
G01X45379Y55499D01*
G01X47061Y55816D02*
G01X47017Y55907D01*
G01X46926Y55999D01*
G01X46835Y56045D01*
G01X46652Y56045D01*
G01X46563Y55999D01*
G01X46471Y55907D01*
G01X46426Y55816D01*
G01X46380Y55681D01*
G01X46380Y55453D01*
G01X46426Y55316D01*
G01X46471Y55227D01*
G01X46563Y55135D01*
G01X46652Y55090D01*
G01X46835Y55090D01*
G01X46926Y55135D01*
G01X47017Y55227D01*
G01X47061Y55316D01*
G01X47061Y55453D01*
G01X46835Y55453D02*
G01X47061Y55453D01*
G01X47363Y56045D02*
G01X47363Y55090D01*
G01X47363Y56045D02*
G01X47998Y55090D01*
G01X47998Y56045D02*
G01X47998Y55090D01*
G01X48298Y56045D02*
G01X48298Y55090D01*
G01X48298Y56045D02*
G01X48618Y56045D01*
G01X48752Y55999D01*
G01X48844Y55907D01*
G01X48889Y55816D01*
G01X48935Y55681D01*
G01X48935Y55453D01*
G01X48889Y55316D01*
G01X48844Y55227D01*
G01X48752Y55135D01*
G01X48618Y55090D01*
G01X48298Y55090D01*
G01X43472Y53367D02*
G01X43426Y53459D01*
G01X43289Y53505D01*
G01X43197Y53505D01*
G01X43063Y53459D01*
G01X42971Y53322D01*
G01X42926Y53096D01*
G01X42926Y52867D01*
G01X42971Y52687D01*
G01X43063Y52595D01*
G01X43197Y52550D01*
G01X43243Y52550D01*
G01X43380Y52595D01*
G01X43472Y52687D01*
G01X43517Y52821D01*
G01X43517Y52867D01*
G01X43472Y53004D01*
G01X43380Y53096D01*
G01X43243Y53141D01*
G01X43197Y53141D01*
G01X43063Y53096D01*
G01X42971Y53004D01*
G01X42926Y52867D01*
G01X44516Y52959D02*
G01X45333Y52959D01*
G01X46334Y53505D02*
G01X46697Y52550D01*
G01X47061Y53505D02*
G01X46697Y52550D01*
G01X47363Y53505D02*
G01X47406Y53459D01*
G01X47452Y53505D01*
G01X47406Y53550D01*
G01X47363Y53505D01*
G01X47406Y53185D02*
G01X47406Y52550D01*
G01X47752Y53185D02*
G01X47752Y52550D01*
G01X47752Y53004D02*
G01X47889Y53141D01*
G01X47980Y53185D01*
G01X48117Y53185D01*
G01X48206Y53141D01*
G01X48252Y53004D01*
G01X48252Y52550D01*
G01X64262Y63665D02*
G01X64262Y62710D01*
G01X64899Y63665D02*
G01X64899Y62710D01*
G01X64262Y63210D02*
G01X64899Y63210D01*
G01X65199Y63665D02*
G01X65199Y62710D01*
G01X65199Y63665D02*
G01X65516Y63665D01*
G01X65653Y63619D01*
G01X65742Y63527D01*
G01X65788Y63436D01*
G01X65834Y63301D01*
G01X65834Y63073D01*
G01X65788Y62936D01*
G01X65742Y62847D01*
G01X65653Y62755D01*
G01X65516Y62710D01*
G01X65199Y62710D01*
G01X66835Y63119D02*
G01X67652Y63119D01*
G01X69197Y63665D02*
G01X68742Y63665D01*
G01X68699Y63256D01*
G01X68742Y63301D01*
G01X68879Y63345D01*
G01X69016Y63345D01*
G01X69154Y63301D01*
G01X69242Y63210D01*
G01X69288Y63073D01*
G01X69288Y62981D01*
G01X69242Y62847D01*
G01X69154Y62755D01*
G01X69016Y62710D01*
G01X68879Y62710D01*
G01X68742Y62755D01*
G01X68699Y62801D01*
G01X68653Y62892D01*
G01X64899Y60987D02*
G01X64808Y61079D01*
G01X64670Y61125D01*
G01X64488Y61125D01*
G01X64353Y61079D01*
G01X64262Y60987D01*
G01X64262Y60896D01*
G01X64307Y60805D01*
G01X64353Y60761D01*
G01X64444Y60716D01*
G01X64716Y60624D01*
G01X64808Y60579D01*
G01X64853Y60533D01*
G01X64899Y60441D01*
G01X64899Y60307D01*
G01X64808Y60215D01*
G01X64670Y60170D01*
G01X64488Y60170D01*
G01X64353Y60215D01*
G01X64262Y60307D01*
G01X65199Y61125D02*
G01X65199Y60170D01*
G01X65199Y61125D02*
G01X65608Y61125D01*
G01X65742Y61079D01*
G01X65788Y61033D01*
G01X65834Y60942D01*
G01X65834Y60850D01*
G01X65788Y60761D01*
G01X65742Y60716D01*
G01X65608Y60670D01*
G01X65199Y60670D01*
G01X65516Y60670D02*
G01X65834Y60170D01*
G01X66835Y60579D02*
G01X67652Y60579D01*
G01X69108Y61125D02*
G01X68653Y60487D01*
G01X69334Y60487D01*
G01X69108Y61125D02*
G01X69108Y60170D01*
G01X63563Y58585D02*
G01X63563Y57630D01*
G01X63246Y58585D02*
G01X63883Y58585D01*
G01X64183Y58585D02*
G01X64818Y57630D01*
G01X64818Y58585D02*
G01X64183Y57630D01*
G01X65117Y58585D02*
G01X65117Y57630D01*
G01X65117Y58585D02*
G01X65438Y58585D01*
G01X65572Y58539D01*
G01X65664Y58447D01*
G01X65709Y58356D01*
G01X65755Y58221D01*
G01X65755Y57993D01*
G01X65709Y57856D01*
G01X65664Y57767D01*
G01X65572Y57675D01*
G01X65438Y57630D01*
G01X65117Y57630D01*
G01X66756Y58039D02*
G01X67574Y58039D01*
G01X68663Y58585D02*
G01X69164Y58585D01*
G01X68892Y58221D01*
G01X69027Y58221D01*
G01X69118Y58176D01*
G01X69164Y58130D01*
G01X69209Y57993D01*
G01X69209Y57901D01*
G01X69164Y57767D01*
G01X69072Y57675D01*
G01X68938Y57630D01*
G01X68800Y57630D01*
G01X68663Y57675D01*
G01X68618Y57721D01*
G01X68572Y57812D01*
G01X63246Y56045D02*
G01X63246Y55090D01*
G01X63246Y56045D02*
G01X63654Y56045D01*
G01X63792Y55999D01*
G01X63837Y55953D01*
G01X63883Y55862D01*
G01X63883Y55770D01*
G01X63837Y55681D01*
G01X63792Y55636D01*
G01X63654Y55590D01*
G01X63246Y55590D01*
G01X63563Y55590D02*
G01X63883Y55090D01*
G01X64183Y56045D02*
G01X64818Y55090D01*
G01X64818Y56045D02*
G01X64183Y55090D01*
G01X65117Y56045D02*
G01X65117Y55090D01*
G01X65117Y56045D02*
G01X65438Y56045D01*
G01X65572Y55999D01*
G01X65664Y55907D01*
G01X65709Y55816D01*
G01X65755Y55681D01*
G01X65755Y55453D01*
G01X65709Y55316D01*
G01X65664Y55227D01*
G01X65572Y55135D01*
G01X65438Y55090D01*
G01X65117Y55090D01*
G01X66756Y55499D02*
G01X67574Y55499D01*
G01X68618Y55816D02*
G01X68618Y55862D01*
G01X68663Y55953D01*
G01X68709Y55999D01*
G01X68800Y56045D01*
G01X68981Y56045D01*
G01X69072Y55999D01*
G01X69118Y55953D01*
G01X69164Y55862D01*
G01X69164Y55770D01*
G01X69118Y55681D01*
G01X69027Y55544D01*
G01X68572Y55090D01*
G01X69209Y55090D01*
G01X62738Y53505D02*
G01X63101Y52550D01*
G01X63464Y53505D02*
G01X63101Y52550D01*
G01X63992Y53185D02*
G01X63901Y53141D01*
G01X63809Y53050D01*
G01X63764Y52913D01*
G01X63764Y52821D01*
G01X63809Y52687D01*
G01X63901Y52595D01*
G01X63992Y52550D01*
G01X64129Y52550D01*
G01X64218Y52595D01*
G01X64310Y52687D01*
G01X64355Y52821D01*
G01X64355Y52913D01*
G01X64310Y53050D01*
G01X64218Y53141D01*
G01X64129Y53185D01*
G01X63992Y53185D01*
G01X64655Y53185D02*
G01X64655Y52732D01*
G01X64701Y52595D01*
G01X64792Y52550D01*
G01X64930Y52550D01*
G01X65018Y52595D01*
G01X65156Y52732D01*
G01X65156Y53185D02*
G01X65156Y52550D01*
G01X65592Y53505D02*
G01X65592Y52732D01*
G01X65638Y52595D01*
G01X65730Y52550D01*
G01X65819Y52550D01*
G01X65455Y53185D02*
G01X65773Y53185D01*
G01X66819Y52959D02*
G01X67637Y52959D01*
G01X68638Y53322D02*
G01X68729Y53367D01*
G01X68864Y53505D01*
G01X68864Y52550D01*
G54D22*
G01X50419Y52588D02*
G01X50419Y51498D01*
G01X50419Y52588D02*
G01X50835Y51498D01*
G01X51249Y52588D02*
G01X50835Y51498D01*
G01X51249Y52588D02*
G01X51249Y51498D01*
G01X51592Y52588D02*
G01X51592Y51498D01*
G01X52321Y52588D02*
G01X52321Y51498D01*
G01X51592Y52070D02*
G01X52321Y52070D01*
G01X52664Y51965D02*
G01X53599Y51965D01*
G01X54668Y52588D02*
G01X53941Y51498D01*
G01X53941Y52588D02*
G01X54668Y52588D01*
G01X53941Y51498D02*
G01X54668Y51498D01*
G01X55011Y52379D02*
G01X55115Y52433D01*
G01X55270Y52588D01*
G01X55270Y51498D01*
G01X56134Y52588D02*
G01X55613Y51861D01*
G01X56393Y51861D01*
G01X56134Y52588D02*
G01X56134Y51498D01*
G01X13980Y90955D02*
G01X12890Y90955D01*
G01X12890Y90955D02*
G01X12890Y90333D01*
G01X13980Y89990D02*
G01X12890Y89990D01*
G01X13980Y89990D02*
G01X13980Y89314D01*
G01X13462Y89990D02*
G01X13462Y89573D01*
G01X12890Y89990D02*
G01X12890Y89314D01*
G01X13980Y88971D02*
G01X12890Y88971D01*
G01X13980Y88971D02*
G01X13980Y88605D01*
G01X13929Y88450D01*
G01X13825Y88346D01*
G01X13721Y88295D01*
G01X13563Y88242D01*
G01X13304Y88242D01*
G01X13149Y88295D01*
G01X13045Y88346D01*
G01X12941Y88450D01*
G01X12890Y88605D01*
G01X12890Y88971D01*
G01X13771Y87899D02*
G01X13825Y87795D01*
G01X13980Y87640D01*
G01X12890Y87640D01*
G01X30988Y58430D02*
G01X30988Y57340D01*
G01X30988Y58430D02*
G01X31455Y58430D01*
G01X31610Y58379D01*
G01X31663Y58326D01*
G01X31714Y58221D01*
G01X31714Y58117D01*
G01X31663Y58013D01*
G01X31610Y57962D01*
G01X31455Y57912D01*
G01X30988Y57912D01*
G01X31351Y57912D02*
G01X31714Y57340D01*
G01X32578Y58430D02*
G01X32057Y57703D01*
G01X32837Y57703D01*
G01X32578Y58430D02*
G01X32578Y57340D01*
G01X31242Y51572D02*
G01X31242Y50482D01*
G01X31242Y51572D02*
G01X31709Y51572D01*
G01X31864Y51521D01*
G01X31917Y51468D01*
G01X31968Y51363D01*
G01X31968Y51259D01*
G01X31917Y51155D01*
G01X31864Y51104D01*
G01X31709Y51054D01*
G01X31242Y51054D01*
G01X31605Y51054D02*
G01X31968Y50482D01*
G01X32936Y51417D02*
G01X32882Y51521D01*
G01X32727Y51572D01*
G01X32623Y51572D01*
G01X32468Y51521D01*
G01X32364Y51363D01*
G01X32311Y51104D01*
G01X32311Y50845D01*
G01X32364Y50637D01*
G01X32468Y50533D01*
G01X32623Y50482D01*
G01X32677Y50482D01*
G01X32832Y50533D01*
G01X32936Y50637D01*
G01X32986Y50792D01*
G01X32986Y50845D01*
G01X32936Y51000D01*
G01X32832Y51104D01*
G01X32677Y51155D01*
G01X32623Y51155D01*
G01X32468Y51104D01*
G01X32364Y51000D01*
G01X32311Y50845D01*
G01X30861Y61859D02*
G01X30861Y60769D01*
G01X30861Y61859D02*
G01X31328Y61859D01*
G01X31483Y61808D01*
G01X31536Y61755D01*
G01X31587Y61650D01*
G01X31587Y61546D01*
G01X31536Y61442D01*
G01X31483Y61391D01*
G01X31328Y61341D01*
G01X30861Y61341D01*
G01X31224Y61341D02*
G01X31587Y60769D01*
G01X32034Y61859D02*
G01X32605Y61859D01*
G01X32296Y61442D01*
G01X32451Y61442D01*
G01X32555Y61391D01*
G01X32605Y61341D01*
G01X32659Y61183D01*
G01X32659Y61079D01*
G01X32605Y60924D01*
G01X32501Y60820D01*
G01X32346Y60769D01*
G01X32191Y60769D01*
G01X32034Y60820D01*
G01X31983Y60871D01*
G01X31930Y60975D01*
G01X30861Y65288D02*
G01X30861Y64198D01*
G01X30861Y65288D02*
G01X31328Y65288D01*
G01X31483Y65237D01*
G01X31536Y65184D01*
G01X31587Y65079D01*
G01X31587Y64975D01*
G01X31536Y64871D01*
G01X31483Y64820D01*
G01X31328Y64770D01*
G01X30861Y64770D01*
G01X31224Y64770D02*
G01X31587Y64198D01*
G01X31983Y65029D02*
G01X31983Y65079D01*
G01X32034Y65184D01*
G01X32087Y65237D01*
G01X32191Y65288D01*
G01X32397Y65288D01*
G01X32501Y65237D01*
G01X32555Y65184D01*
G01X32605Y65079D01*
G01X32605Y64975D01*
G01X32555Y64871D01*
G01X32451Y64716D01*
G01X31930Y64198D01*
G01X32659Y64198D01*
G01X13726Y42949D02*
G01X12636Y42949D01*
G01X12636Y42949D02*
G01X12636Y42325D01*
G01X13726Y41982D02*
G01X12636Y41982D01*
G01X13726Y41982D02*
G01X13726Y41306D01*
G01X13208Y41982D02*
G01X13208Y41568D01*
G01X12636Y41982D02*
G01X12636Y41306D01*
G01X13726Y40963D02*
G01X12636Y40963D01*
G01X13726Y40963D02*
G01X13726Y40600D01*
G01X13675Y40445D01*
G01X13571Y40341D01*
G01X13467Y40290D01*
G01X13309Y40237D01*
G01X13050Y40237D01*
G01X12895Y40290D01*
G01X12791Y40341D01*
G01X12687Y40445D01*
G01X12636Y40600D01*
G01X12636Y40963D01*
G01X13726Y39376D02*
G01X12999Y39894D01*
G01X12999Y39114D01*
G01X13726Y39376D02*
G01X12636Y39376D01*
G01X14107Y27582D02*
G01X13017Y27582D01*
G01X13017Y27582D02*
G01X13017Y26958D01*
G01X14107Y26615D02*
G01X13017Y26615D01*
G01X14107Y26615D02*
G01X14107Y25939D01*
G01X13589Y26615D02*
G01X13589Y26201D01*
G01X13017Y26615D02*
G01X13017Y25939D01*
G01X14107Y25596D02*
G01X13017Y25596D01*
G01X14107Y25596D02*
G01X14107Y25233D01*
G01X14056Y25078D01*
G01X13952Y24974D01*
G01X13848Y24923D01*
G01X13690Y24870D01*
G01X13431Y24870D01*
G01X13276Y24923D01*
G01X13172Y24974D01*
G01X13068Y25078D01*
G01X13017Y25233D01*
G01X13017Y25596D01*
G01X14107Y23904D02*
G01X14107Y24423D01*
G01X13639Y24476D01*
G01X13690Y24423D01*
G01X13743Y24268D01*
G01X13743Y24110D01*
G01X13690Y23955D01*
G01X13589Y23851D01*
G01X13431Y23800D01*
G01X13327Y23800D01*
G01X13172Y23851D01*
G01X13068Y23955D01*
G01X13017Y24110D01*
G01X13017Y24268D01*
G01X13068Y24423D01*
G01X13119Y24476D01*
G01X13223Y24527D01*
G01X13853Y11580D02*
G01X12763Y11580D01*
G01X12763Y11580D02*
G01X12763Y10956D01*
G01X13853Y10613D02*
G01X12763Y10613D01*
G01X13853Y10613D02*
G01X13853Y9937D01*
G01X13335Y10613D02*
G01X13335Y10199D01*
G01X12763Y10613D02*
G01X12763Y9937D01*
G01X13853Y9594D02*
G01X12763Y9594D01*
G01X13853Y9594D02*
G01X13853Y9231D01*
G01X13802Y9076D01*
G01X13698Y8972D01*
G01X13594Y8921D01*
G01X13436Y8868D01*
G01X13177Y8868D01*
G01X13022Y8921D01*
G01X12918Y8972D01*
G01X12814Y9076D01*
G01X12763Y9231D01*
G01X12763Y9594D01*
G01X13698Y7902D02*
G01X13802Y7953D01*
G01X13853Y8108D01*
G01X13853Y8212D01*
G01X13802Y8370D01*
G01X13644Y8474D01*
G01X13385Y8525D01*
G01X13126Y8525D01*
G01X12918Y8474D01*
G01X12814Y8370D01*
G01X12763Y8212D01*
G01X12763Y8162D01*
G01X12814Y8007D01*
G01X12918Y7902D01*
G01X13073Y7849D01*
G01X13126Y7849D01*
G01X13281Y7902D01*
G01X13385Y8007D01*
G01X13436Y8162D01*
G01X13436Y8212D01*
G01X13385Y8370D01*
G01X13281Y8474D01*
G01X13126Y8525D01*
G01X13980Y59205D02*
G01X12888Y59205D01*
G01X12888Y59205D02*
G01X12888Y58581D01*
G01X13980Y58238D02*
G01X12888Y58238D01*
G01X13980Y58238D02*
G01X13980Y57562D01*
G01X13460Y58238D02*
G01X13460Y57824D01*
G01X12888Y58238D02*
G01X12888Y57562D01*
G01X13980Y57219D02*
G01X12888Y57219D01*
G01X13980Y57219D02*
G01X13980Y56856D01*
G01X13927Y56701D01*
G01X13823Y56597D01*
G01X13721Y56546D01*
G01X13564Y56493D01*
G01X13305Y56493D01*
G01X13150Y56546D01*
G01X13046Y56597D01*
G01X12942Y56701D01*
G01X12888Y56856D01*
G01X12888Y57219D01*
G01X13980Y56046D02*
G01X13980Y55474D01*
G01X13564Y55787D01*
G01X13564Y55632D01*
G01X13513Y55527D01*
G01X13460Y55474D01*
G01X13305Y55423D01*
G01X13201Y55423D01*
G01X13046Y55474D01*
G01X12942Y55578D01*
G01X12888Y55733D01*
G01X12888Y55891D01*
G01X12942Y56046D01*
G01X12992Y56099D01*
G01X13096Y56150D01*
G01X14107Y74445D02*
G01X13017Y74445D01*
G01X13017Y74445D02*
G01X13017Y73821D01*
G01X14107Y73478D02*
G01X13017Y73478D01*
G01X14107Y73478D02*
G01X14107Y72802D01*
G01X13589Y73478D02*
G01X13589Y73064D01*
G01X13017Y73478D02*
G01X13017Y72802D01*
G01X14107Y72459D02*
G01X13017Y72459D01*
G01X14107Y72459D02*
G01X14107Y72096D01*
G01X14056Y71941D01*
G01X13952Y71837D01*
G01X13848Y71786D01*
G01X13690Y71733D01*
G01X13431Y71733D01*
G01X13276Y71786D01*
G01X13172Y71837D01*
G01X13068Y71941D01*
G01X13017Y72096D01*
G01X13017Y72459D01*
G01X13848Y71339D02*
G01X13898Y71339D01*
G01X14003Y71286D01*
G01X14056Y71235D01*
G01X14107Y71131D01*
G01X14107Y70922D01*
G01X14056Y70818D01*
G01X14003Y70767D01*
G01X13898Y70714D01*
G01X13794Y70714D01*
G01X13690Y70767D01*
G01X13535Y70872D01*
G01X13017Y71390D01*
G01X13017Y70663D01*
G54D13*
G01X96362Y14477D02*
G01X96271Y14662D01*
G01X95994Y14939D01*
G01X97932Y14939D01*
G54D22*
G01X30988Y68717D02*
G01X30988Y67627D01*
G01X30988Y68717D02*
G01X31455Y68717D01*
G01X31610Y68666D01*
G01X31663Y68613D01*
G01X31714Y68508D01*
G01X31714Y68404D01*
G01X31663Y68300D01*
G01X31610Y68249D01*
G01X31455Y68199D01*
G01X30988Y68199D01*
G01X31351Y68199D02*
G01X31714Y67627D01*
G01X32057Y68508D02*
G01X32161Y68562D01*
G01X32318Y68717D01*
G01X32318Y67627D01*
G54D10*
G75*
G01X7323Y87862D02*
G03X7323Y90625I2203J1381D01*
G01*
G75*
G01X7323Y39968D02*
G03X7323Y42732I2203J1382D01*
G01*
G75*
G01X7323Y24004D02*
G03X7323Y26768I2203J1382D01*
G01*
G75*
G01X7323Y8040D02*
G03X7323Y10803I2203J1381D01*
G01*
G75*
G01X7323Y55933D02*
G03X7323Y58696I2203J1382D01*
G01*
G75*
G01X7323Y71897D02*
G03X7323Y74661I2203J1382D01*
G01*
M00*
M02*
