G04 Layer: BottomLayer*
G04 EasyEDA v6.4.7, 2020-10-29T15:09:56+01:00*
G04 be26d73647f643b9bed1595039a1f13e,8ad6603aa9144f4486dc47fe7e0b0969,10*
G04 Gerber Generator version 0.2*
G04 Scale: 100 percent, Rotated: No, Reflected: No *
G04 Dimensions in millimeters *
G04 leading zeros omitted , absolute positions ,3 integer and 3 decimal *
%FSLAX33Y33*%
%MOMM*%
G90*
D02*

%ADD11C,0.499999*%
%ADD12C,0.999998*%
%ADD14R,1.574800X1.574800*%
%ADD15C,1.574800*%
%ADD16C,1.879600*%
%ADD17C,1.524000*%
%ADD18C,1.729994*%
%ADD19C,1.651000*%
%ADD20R,1.524000X2.540000*%

%LPD*%
G54D12*
G01X8255Y57315D02*
G01X8255Y59182D01*
G01X18542Y69469D01*
G01X36195Y69469D01*
G01X38735Y66929D01*
G01X38735Y66929D02*
G01X38735Y58166D01*
G01X41402Y55499D01*
G54D11*
G01X26543Y59613D02*
G01X13093Y59613D01*
G01X10795Y57315D01*
G54D12*
G01X61468Y8382D02*
G01X61468Y13335D01*
G01X46482Y49784D02*
G01X46482Y50419D01*
G01X41402Y55499D01*
G01X8255Y9420D02*
G01X8255Y7239D01*
G01X9398Y6096D01*
G01X60325Y6096D01*
G01X61468Y7239D01*
G01X61468Y8382D01*
G54D11*
G01X71374Y47879D02*
G01X71374Y49418D01*
G01X71120Y63119D02*
G01X74041Y60198D01*
G01X74041Y52085D01*
G01X71374Y49418D01*
G01X53848Y38735D02*
G01X53848Y43815D01*
G01X56388Y38735D02*
G01X56388Y43815D01*
G01X74168Y13335D02*
G01X74168Y8382D01*
G01X46228Y13335D02*
G01X46228Y8382D01*
G01X48768Y13335D02*
G01X48768Y8382D01*
G01X51308Y13335D02*
G01X51308Y8382D01*
G01X53848Y13335D02*
G01X53848Y8382D01*
G01X56388Y13335D02*
G01X56388Y8382D01*
G01X58928Y13335D02*
G01X58928Y8382D01*
G01X74168Y15356D02*
G01X75920Y17111D01*
G01X75920Y44353D01*
G01X74488Y45788D01*
G01X53017Y45788D01*
G01X49022Y49784D01*
G01X10795Y41351D02*
G01X25654Y56210D01*
G01X26543Y56210D01*
G01X34163Y49403D02*
G01X31658Y49403D01*
G01X26784Y44528D01*
G01X26784Y37200D01*
G01X28244Y35740D01*
G01X38547Y35740D01*
G01X58928Y15356D01*
G01X58928Y13335D02*
G01X58928Y15356D01*
G01X53848Y13335D02*
G01X53848Y15356D01*
G01X34163Y56210D02*
G01X29057Y51104D01*
G01X25841Y51104D01*
G01X24676Y49938D01*
G01X24676Y36413D01*
G01X44729Y16360D01*
G01X52844Y16360D01*
G01X53848Y15356D01*
G01X51308Y15356D02*
G01X44135Y15356D01*
G01X23555Y35938D01*
G01X23555Y52306D01*
G01X25755Y54508D01*
G01X29057Y54508D01*
G01X34163Y59613D01*
G01X51308Y13335D02*
G01X51308Y15356D01*
G01X54102Y49784D02*
G01X70203Y49784D01*
G01X72699Y52280D01*
G01X72699Y56459D01*
G01X71120Y58039D01*
G01X51562Y49784D02*
G01X51562Y49977D01*
G01X57083Y55499D01*
G01X71120Y55499D01*
G01X74168Y13335D02*
G01X74168Y15356D01*
G01X49022Y49784D02*
G01X47360Y48122D01*
G01X45933Y48122D01*
G01X41402Y52654D01*
G01X41402Y52959D01*
G01X56388Y13335D02*
G01X56388Y15356D01*
G01X34163Y52806D02*
G01X33566Y52806D01*
G01X25781Y45021D01*
G01X25781Y36784D01*
G01X45201Y17363D01*
G01X54381Y17363D01*
G01X56388Y15356D01*
G54D14*
G01X71374Y47879D03*
G54D15*
G01X73914Y47879D03*
G54D16*
G01X26543Y52806D03*
G01X34163Y52806D03*
G54D17*
G01X41402Y52959D03*
G01X41402Y55499D03*
G01X41402Y58039D03*
G01X41402Y60579D03*
G01X71120Y52959D03*
G01X71120Y55499D03*
G01X71120Y58039D03*
G01X71120Y60579D03*
G01X71120Y63119D03*
G54D14*
G01X54102Y49784D03*
G54D15*
G01X51562Y49784D03*
G01X49022Y49784D03*
G01X46482Y49784D03*
G54D18*
G01X28448Y8382D03*
G01X30990Y8384D03*
G01X36070Y8384D03*
G01X33528Y8382D03*
G01X38608Y8382D03*
G01X41148Y8382D03*
G01X43688Y8382D03*
G01X46228Y8382D03*
G01X48768Y8382D03*
G01X51308Y8382D03*
G01X53848Y8382D03*
G01X56388Y8382D03*
G01X58928Y8382D03*
G01X61468Y8382D03*
G01X64008Y8382D03*
G01X66548Y8382D03*
G01X69088Y8382D03*
G01X71628Y8382D03*
G01X74168Y8382D03*
G01X74168Y43815D03*
G01X71625Y43812D03*
G01X66545Y43812D03*
G01X69088Y43815D03*
G01X64008Y43815D03*
G01X61468Y43815D03*
G01X58928Y43815D03*
G01X56388Y43815D03*
G01X53848Y43815D03*
G01X51308Y43815D03*
G01X48768Y43815D03*
G01X46228Y43815D03*
G01X43688Y43815D03*
G01X41148Y43815D03*
G01X38608Y43815D03*
G01X36068Y43815D03*
G01X33528Y43815D03*
G01X30988Y43815D03*
G01X28448Y43815D03*
G54D19*
G01X10795Y89243D03*
G01X8255Y89243D03*
G54D16*
G01X26543Y56210D03*
G01X34163Y56210D03*
G01X26543Y49403D03*
G01X34163Y49403D03*
G01X26543Y59613D03*
G01X34163Y59613D03*
G01X26543Y63017D03*
G01X34163Y63017D03*
G54D19*
G01X10795Y41350D03*
G01X8255Y41350D03*
G01X10795Y25385D03*
G01X8255Y25385D03*
G01X10795Y9421D03*
G01X8255Y9421D03*
G01X10795Y57314D03*
G01X8255Y57314D03*
G01X10795Y73279D03*
G01X8255Y73279D03*
G54D20*
G01X28448Y13335D03*
G01X30988Y13335D03*
G01X33528Y13335D03*
G01X36068Y13335D03*
G01X38608Y13335D03*
G01X41148Y13335D03*
G01X43688Y13335D03*
G01X46228Y13335D03*
G01X48768Y13335D03*
G01X51308Y13335D03*
G01X53848Y13335D03*
G01X56388Y13335D03*
G01X58928Y13335D03*
G01X61468Y13335D03*
G01X64008Y13335D03*
G01X66548Y13335D03*
G01X69088Y13335D03*
G01X71628Y13335D03*
G01X74168Y13335D03*
G01X28448Y38735D03*
G01X30988Y38735D03*
G01X33528Y38735D03*
G01X36068Y38735D03*
G01X38608Y38735D03*
G01X41148Y38735D03*
G01X43688Y38735D03*
G01X46228Y38735D03*
G01X48768Y38735D03*
G01X51308Y38735D03*
G01X53848Y38735D03*
G01X56388Y38735D03*
G01X58928Y38735D03*
G01X61468Y38735D03*
G01X64008Y38735D03*
G01X66548Y38735D03*
G01X69088Y38735D03*
G01X71628Y38735D03*
G01X74168Y38735D03*
G54D16*
G01X26543Y66421D03*
G01X34163Y66421D03*
M00*
M02*
