G04 Layer: TopSolderMaskLayer*
G04 EasyEDA v6.4.7, 2020-10-28T19:07:04+01:00*
G04 bb3374b6982d409485d2e8f05e856911,8ad6603aa9144f4486dc47fe7e0b0969,10*
G04 Gerber Generator version 0.2*
G04 Scale: 100 percent, Rotated: No, Reflected: No *
G04 Dimensions in millimeters *
G04 leading zeros omitted , absolute positions ,3 integer and 3 decimal *
%FSLAX33Y33*%
%MOMM*%
G90*
D02*

%ADD22C,1.727200*%
%ADD24C,1.778000*%
%ADD25C,2.082800*%
%ADD26C,1.933194*%
%ADD27C,1.854200*%
%ADD28R,1.727200X2.743200*%

%LPD*%
G54D22*
G01X41402Y52959D03*
G01X41402Y55499D03*
G01X41402Y58039D03*
G01X41402Y60579D03*
G01X71120Y52959D03*
G01X71120Y55499D03*
G01X71120Y58039D03*
G01X71120Y60579D03*
G01X71120Y63119D03*
G36*
G01X53213Y48895D02*
G01X53213Y50673D01*
G01X54991Y50673D01*
G01X54991Y48895D01*
G01X53213Y48895D01*
G37*
G54D24*
G01X51562Y49784D03*
G01X49022Y49784D03*
G01X46482Y49784D03*
G54D25*
G01X26543Y52806D03*
G01X34163Y52806D03*
G54D26*
G01X28448Y8382D03*
G01X30990Y8384D03*
G01X36070Y8384D03*
G01X33528Y8382D03*
G01X38608Y8382D03*
G01X41148Y8382D03*
G01X43688Y8382D03*
G01X46228Y8382D03*
G01X48768Y8382D03*
G01X51308Y8382D03*
G01X53848Y8382D03*
G01X56388Y8382D03*
G01X58928Y8382D03*
G01X61468Y8382D03*
G01X64008Y8382D03*
G01X66548Y8382D03*
G01X69088Y8382D03*
G01X71628Y8382D03*
G01X74168Y8382D03*
G01X74168Y43815D03*
G01X71625Y43812D03*
G01X66545Y43812D03*
G01X69088Y43815D03*
G01X64008Y43815D03*
G01X61468Y43815D03*
G01X58928Y43815D03*
G01X56388Y43815D03*
G01X53848Y43815D03*
G01X51308Y43815D03*
G01X48768Y43815D03*
G01X46228Y43815D03*
G01X43688Y43815D03*
G01X41148Y43815D03*
G01X38608Y43815D03*
G01X36068Y43815D03*
G01X33528Y43815D03*
G01X30988Y43815D03*
G01X28448Y43815D03*
G54D27*
G01X10795Y89243D03*
G01X8255Y89243D03*
G54D25*
G01X26543Y56210D03*
G01X34163Y56210D03*
G01X26543Y49403D03*
G01X34163Y49403D03*
G01X26543Y59613D03*
G01X34163Y59613D03*
G01X26543Y63017D03*
G01X34163Y63017D03*
G54D27*
G01X10795Y41350D03*
G01X8255Y41350D03*
G01X10795Y25385D03*
G01X8255Y25385D03*
G01X10795Y9421D03*
G01X8255Y9421D03*
G01X10795Y57314D03*
G01X8255Y57314D03*
G01X10795Y73279D03*
G01X8255Y73279D03*
G54D28*
G01X28448Y13335D03*
G01X30988Y13335D03*
G01X33528Y13335D03*
G01X36068Y13335D03*
G01X38608Y13335D03*
G01X41148Y13335D03*
G01X43688Y13335D03*
G01X46228Y13335D03*
G01X48768Y13335D03*
G01X51308Y13335D03*
G01X53848Y13335D03*
G01X56388Y13335D03*
G01X58928Y13335D03*
G01X61468Y13335D03*
G01X64008Y13335D03*
G01X66548Y13335D03*
G01X69088Y13335D03*
G01X71628Y13335D03*
G01X74168Y13335D03*
G01X28448Y38735D03*
G01X30988Y38735D03*
G01X33528Y38735D03*
G01X36068Y38735D03*
G01X38608Y38735D03*
G01X41148Y38735D03*
G01X43688Y38735D03*
G01X46228Y38735D03*
G01X48768Y38735D03*
G01X51308Y38735D03*
G01X53848Y38735D03*
G01X56388Y38735D03*
G01X58928Y38735D03*
G01X61468Y38735D03*
G01X64008Y38735D03*
G01X66548Y38735D03*
G01X69088Y38735D03*
G01X71628Y38735D03*
G01X74168Y38735D03*
G54D25*
G01X26543Y66421D03*
G01X34163Y66421D03*
M00*
M02*
